<svg width="191" height="191" viewBox="0 0 191 191" fill="none" xmlns="http://www.w3.org/2000/svg">
<rect width="191" height="191" rx="25" fill="white"/>
<path d="M59 75.6667C59 77.6833 60.65 79.3333 62.6667 79.3333C64.6833 79.3333 66.3333 77.6833 66.3333 75.6667V68.3333H73.6667C75.6833 68.3333 77.3333 66.6833 77.3333 64.6667C77.3333 62.65 75.6833 61 73.6667 61H66.3333V53.6667C66.3333 51.65 64.6833 50 62.6667 50C60.65 50 59 51.65 59 53.6667V61H51.6667C49.65 61 48 62.65 48 64.6667C48 66.6833 49.65 68.3333 51.6667 68.3333H59V75.6667Z" fill="#929292"/>
<path d="M95.6667 108.667C101.742 108.667 106.667 103.742 106.667 97.6667C106.667 91.5915 101.742 86.6667 95.6667 86.6667C89.5916 86.6667 84.6667 91.5915 84.6667 97.6667C84.6667 103.742 89.5916 108.667 95.6667 108.667Z" fill="#929292"/>
<path d="M125 68.3333H113.377L108.83 63.3833C108.145 62.6349 107.313 62.0366 106.385 61.6264C105.457 61.2162 104.454 61.0029 103.44 61H79.9733C80.5967 62.1 81 63.31 81 64.6667C81 68.7 77.7 72 73.6667 72H70V75.6667C70 79.7 66.7 83 62.6667 83C61.31 83 60.1 82.5967 59 81.9733V119.667C59 123.7 62.3 127 66.3333 127H125C129.033 127 132.333 123.7 132.333 119.667V75.6667C132.333 71.6333 129.033 68.3333 125 68.3333ZM95.6667 116C85.5467 116 77.3333 107.787 77.3333 97.6667C77.3333 87.5467 85.5467 79.3333 95.6667 79.3333C105.787 79.3333 114 87.5467 114 97.6667C114 107.787 105.787 116 95.6667 116Z" fill="#929292"/>
</svg>
