<svg width="72" height="71" viewBox="0 0 72 71" fill="none" xmlns="http://www.w3.org/2000/svg">
<g filter="url(#filter0_d_17_10)">
<path fill-rule="evenodd" clip-rule="evenodd" d="M36 67C54.2254 67 69 52.4493 69 34.5C69 16.5507 54.2254 2 36 2C17.7746 2 3 16.5507 3 34.5C3 52.4493 17.7746 67 36 67ZM26.9539 31.4031C26.6682 31.6889 26.4607 32.0233 26.3316 32.3797C25.7711 33.3946 25.9212 34.6969 26.782 35.5577L37.4028 46.1785C38.4455 47.2212 40.136 47.2212 41.1787 46.1785C42.2214 45.1358 42.2214 43.4452 41.1787 42.4025L32.3434 33.5672L41.3516 24.5589C42.3945 23.516 42.3945 21.8251 41.3516 20.7822C40.3087 19.7393 38.6178 19.7393 37.5749 20.7822L26.9539 31.4031Z" fill="white"/>
</g>
<defs>
<filter id="filter0_d_17_10" x="0.9" y="0.9" width="70.2" height="69.2" filterUnits="userSpaceOnUse" color-interpolation-filters="sRGB">
<feFlood flood-opacity="0" result="BackgroundImageFix"/>
<feColorMatrix in="SourceAlpha" type="matrix" values="0 0 0 0 0 0 0 0 0 0 0 0 0 0 0 0 0 0 127 0" result="hardAlpha"/>
<feOffset dy="1"/>
<feGaussianBlur stdDeviation="1.05"/>
<feComposite in2="hardAlpha" operator="out"/>
<feColorMatrix type="matrix" values="0 0 0 0 0 0 0 0 0 0 0 0 0 0 0 0 0 0 0.25 0"/>
<feBlend mode="normal" in2="BackgroundImageFix" result="effect1_dropShadow_17_10"/>
<feBlend mode="normal" in="SourceGraphic" in2="effect1_dropShadow_17_10" result="shape"/>
</filter>
</defs>
</svg>
