<svg width="33" height="33" viewBox="0 0 33 33" fill="none" xmlns="http://www.w3.org/2000/svg">
<g filter="url(#filter0_d_16_465)">
<mask id="path-1-outside-1_16_465" maskUnits="userSpaceOnUse" x="3.36597" y="1.36595" width="27" height="27" fill="black">
<rect fill="white" x="3.36597" y="1.36595" width="27" height="27"/>
<path fill-rule="evenodd" clip-rule="evenodd" d="M6.33193 4.33183C5.04409 5.61966 5.04409 7.70765 6.33192 8.99549L11.9283 14.5918L6.33184 20.1883C5.04401 21.4761 5.04401 23.5641 6.33184 24.8519C7.61967 26.1398 9.70766 26.1398 10.9955 24.8519L16.5919 19.2555L22.1884 24.8519C23.4762 26.1398 25.5642 26.1398 26.852 24.8519C28.1399 23.5641 28.1399 21.4761 26.852 20.1883L21.2556 14.5918L26.8519 8.99549C28.1398 7.70766 28.1398 5.61967 26.8519 4.33183C25.5641 3.044 23.4761 3.044 22.1883 4.33183L16.5919 9.92818L10.9956 4.33183C9.70775 3.044 7.61976 3.044 6.33193 4.33183Z"/>
</mask>
<path fill-rule="evenodd" clip-rule="evenodd" d="M6.33193 4.33183C5.04409 5.61966 5.04409 7.70765 6.33192 8.99549L11.9283 14.5918L6.33184 20.1883C5.04401 21.4761 5.04401 23.5641 6.33184 24.8519C7.61967 26.1398 9.70766 26.1398 10.9955 24.8519L16.5919 19.2555L22.1884 24.8519C23.4762 26.1398 25.5642 26.1398 26.852 24.8519C28.1399 23.5641 28.1399 21.4761 26.852 20.1883L21.2556 14.5918L26.8519 8.99549C28.1398 7.70766 28.1398 5.61967 26.8519 4.33183C25.5641 3.044 23.4761 3.044 22.1883 4.33183L16.5919 9.92818L10.9956 4.33183C9.70775 3.044 7.61976 3.044 6.33193 4.33183Z" fill="white"/>
<path d="M6.33192 8.99549L7.74614 7.58128L6.33192 8.99549ZM6.33193 4.33183L4.91771 2.91762L4.91771 2.91762L6.33193 4.33183ZM11.9283 14.5918L13.3425 16.0061C13.7176 15.631 13.9283 15.1223 13.9283 14.5918C13.9283 14.0614 13.7176 13.5527 13.3425 13.1776L11.9283 14.5918ZM6.33184 20.1883L4.91763 18.7741H4.91763L6.33184 20.1883ZM6.33184 24.8519L4.91763 26.2662H4.91763L6.33184 24.8519ZM10.9955 24.8519L12.4097 26.2662L10.9955 24.8519ZM16.5919 19.2555L18.0061 17.8413C17.6311 17.4662 17.1224 17.2555 16.5919 17.2555C16.0615 17.2555 15.5528 17.4662 15.1777 17.8413L16.5919 19.2555ZM26.852 24.8519L28.2662 26.2661V26.2661L26.852 24.8519ZM26.852 20.1883L25.4378 21.6025L26.852 20.1883ZM21.2556 14.5918L19.8414 13.1776C19.0603 13.9587 19.0603 15.225 19.8414 16.0061L21.2556 14.5918ZM26.8519 8.99549L28.2662 10.4097L26.8519 8.99549ZM26.8519 4.33183L28.2662 2.91762V2.91762L26.8519 4.33183ZM22.1883 4.33183L23.6025 5.74604L22.1883 4.33183ZM16.5919 9.92818L15.1777 11.3424C15.9588 12.1234 17.2251 12.1234 18.0061 11.3424L16.5919 9.92818ZM10.9956 4.33183L9.58137 5.74604L10.9956 4.33183ZM7.74614 7.58128C7.23935 7.07449 7.23935 6.25283 7.74614 5.74604L4.91771 2.91762C2.84883 4.9865 2.84883 8.34082 4.91771 10.4097L7.74614 7.58128ZM13.3425 13.1776L7.74614 7.58128L4.91771 10.4097L10.5141 16.0061L13.3425 13.1776ZM7.74605 21.6025L13.3425 16.0061L10.5141 13.1776L4.91763 18.7741L7.74605 21.6025ZM7.74605 23.4377C7.23927 22.9309 7.23927 22.1093 7.74605 21.6025L4.91763 18.7741C2.84874 20.8429 2.84874 24.1973 4.91763 26.2662L7.74605 23.4377ZM9.58129 23.4377C9.0745 23.9445 8.25284 23.9445 7.74605 23.4377L4.91763 26.2662C6.98651 28.335 10.3408 28.335 12.4097 26.2662L9.58129 23.4377ZM15.1777 17.8413L9.58129 23.4377L12.4097 26.2662L18.0061 20.6697L15.1777 17.8413ZM23.6026 23.4377L18.0061 17.8413L15.1777 20.6697L20.7742 26.2661L23.6026 23.4377ZM25.4378 23.4377C24.931 23.9445 24.1094 23.9445 23.6026 23.4377L20.7742 26.2661C22.843 28.335 26.1974 28.335 28.2662 26.2661L25.4378 23.4377ZM25.4378 21.6025C25.9446 22.1093 25.9446 22.9309 25.4378 23.4377L28.2662 26.2661C30.3351 24.1973 30.3351 20.8429 28.2662 18.7741L25.4378 21.6025ZM19.8414 16.0061L25.4378 21.6025L28.2662 18.7741L22.6698 13.1776L19.8414 16.0061ZM25.4377 7.58128L19.8414 13.1776L22.6698 16.0061L28.2662 10.4097L25.4377 7.58128ZM25.4377 5.74605C25.9445 6.25283 25.9445 7.07449 25.4377 7.58128L28.2662 10.4097C30.335 8.34082 30.335 4.9865 28.2662 2.91762L25.4377 5.74605ZM23.6025 5.74604C24.1093 5.23926 24.9309 5.23926 25.4377 5.74605L28.2662 2.91762C26.1973 0.848737 22.843 0.848734 20.7741 2.91762L23.6025 5.74604ZM18.0061 11.3424L23.6025 5.74604L20.7741 2.91762L15.1777 8.51397L18.0061 11.3424ZM9.58137 5.74604L15.1777 11.3424L18.0061 8.51397L12.4098 2.91762L9.58137 5.74604ZM7.74614 5.74604C8.25292 5.23926 9.07459 5.23926 9.58137 5.74604L12.4098 2.91762C10.3409 0.848734 6.98659 0.848734 4.91771 2.91762L7.74614 5.74604Z" fill="#6D0000" mask="url(#path-1-outside-1_16_465)"/>
</g>
<defs>
<filter id="filter0_d_16_465" x="0.665967" y="0.665951" width="31.8519" height="31.8519" filterUnits="userSpaceOnUse" color-interpolation-filters="sRGB">
<feFlood flood-opacity="0" result="BackgroundImageFix"/>
<feColorMatrix in="SourceAlpha" type="matrix" values="0 0 0 0 0 0 0 0 0 0 0 0 0 0 0 0 0 0 127 0" result="hardAlpha"/>
<feOffset dy="2"/>
<feGaussianBlur stdDeviation="1.35"/>
<feComposite in2="hardAlpha" operator="out"/>
<feColorMatrix type="matrix" values="0 0 0 0 0 0 0 0 0 0 0 0 0 0 0 0 0 0 0.25 0"/>
<feBlend mode="normal" in2="BackgroundImageFix" result="effect1_dropShadow_16_465"/>
<feBlend mode="normal" in="SourceGraphic" in2="effect1_dropShadow_16_465" result="shape"/>
</filter>
</defs>
</svg>
