<svg width="48" height="48" viewBox="0 0 48 48" fill="none" xmlns="http://www.w3.org/2000/svg">
<g filter="url(#filter0_d_17_199)">
<path fill-rule="evenodd" clip-rule="evenodd" d="M45 23C45 34.598 35.598 44 24 44C12.402 44 3 34.598 3 23C3 11.402 12.402 2 24 2C35.598 2 45 11.402 45 23ZM15.3683 14.8683C16.5398 13.6967 18.4393 13.6967 19.6109 14.8683L23.5 18.7573L27.389 14.8683C28.5606 13.6967 30.4601 13.6967 31.6316 14.8683C32.8032 16.0398 32.8032 17.9393 31.6316 19.1109L27.7426 23L31.6317 26.8891C32.8033 28.0607 32.8033 29.9602 31.6317 31.1317C30.4602 32.3033 28.5607 32.3033 27.3891 31.1317L23.5 27.2426L19.6108 31.1317C18.4393 32.3033 16.5398 32.3033 15.3682 31.1317C14.1966 29.9602 14.1966 28.0607 15.3682 26.8891L19.2573 23L15.3683 19.1109C14.1967 17.9393 14.1967 16.0398 15.3683 14.8683Z" fill="#DA4722"/>
</g>
<defs>
<filter id="filter0_d_17_199" x="0.9" y="0.9" width="46.2" height="46.2" filterUnits="userSpaceOnUse" color-interpolation-filters="sRGB">
<feFlood flood-opacity="0" result="BackgroundImageFix"/>
<feColorMatrix in="SourceAlpha" type="matrix" values="0 0 0 0 0 0 0 0 0 0 0 0 0 0 0 0 0 0 127 0" result="hardAlpha"/>
<feOffset dy="1"/>
<feGaussianBlur stdDeviation="1.05"/>
<feComposite in2="hardAlpha" operator="out"/>
<feColorMatrix type="matrix" values="0 0 0 0 0 0 0 0 0 0 0 0 0 0 0 0 0 0 0.25 0"/>
<feBlend mode="normal" in2="BackgroundImageFix" result="effect1_dropShadow_17_199"/>
<feBlend mode="normal" in="SourceGraphic" in2="effect1_dropShadow_17_199" result="shape"/>
</filter>
</defs>
</svg>
