<?xml version="1.0" standalone="no"?>
<!DOCTYPE svg PUBLIC "-//W3C//DTD SVG 20010904//EN"
 "http://www.w3.org/TR/2001/REC-SVG-20010904/DTD/svg10.dtd">
<svg version="1.0" xmlns="http://www.w3.org/2000/svg"
 width="512.000000pt" height="493.000000pt" viewBox="0 0 512.000000 493.000000"
 preserveAspectRatio="xMidYMid meet">

<g transform="translate(0.000000,493.000000) scale(0.100000,-0.100000)"
fill="#000000" stroke="none">
<path d="M3350 4914 c-134 -35 -293 -140 -386 -254 -263 -320 -348 -834 -200
-1200 39 -98 86 -170 161 -245 117 -118 247 -172 389 -162 72 5 92 11 183 57
128 65 218 140 305 255 157 207 238 460 238 744 0 236 -44 405 -145 557 -136
204 -348 300 -545 248z"/>
<path d="M1491 4894 c-195 -52 -362 -247 -423 -491 -29 -117 -31 -373 -5 -506
76 -381 279 -665 576 -806 74 -35 79 -36 192 -36 114 0 116 0 195 39 91 45
188 136 243 230 73 122 121 316 121 484 0 451 -225 877 -545 1032 -136 66
-246 83 -354 54z"/>
<path d="M4500 3430 c-361 -97 -627 -425 -705 -871 -46 -263 12 -500 160 -658
136 -144 291 -182 491 -120 321 99 585 434 655 829 19 111 17 321 -4 398 -89
321 -333 493 -597 422z"/>
<path d="M364 3326 c-121 -38 -236 -132 -289 -235 -60 -120 -88 -328 -66 -494
53 -393 304 -738 636 -873 120 -49 222 -63 311 -41 88 22 162 67 230 140 228
246 197 774 -67 1133 -126 172 -321 322 -478 368 -66 19 -218 20 -277 2z"/>
<path d="M2435 2355 c-366 -60 -700 -264 -926 -565 -260 -346 -433 -707 -519
-1077 -34 -147 -37 -212 -15 -298 54 -212 222 -368 425 -397 158 -22 314 10
666 137 331 120 454 148 659 148 189 1 286 -25 670 -178 121 -49 243 -94 270
-102 202 -54 435 -2 561 123 163 163 163 417 0 784 -59 132 -113 225 -244 423
-385 581 -729 889 -1097 982 -128 33 -319 41 -450 20z"/>
</g>
</svg>
