<svg width="37" height="36" viewBox="0 0 37 36" fill="none" xmlns="http://www.w3.org/2000/svg">
<g filter="url(#filter0_d_16_470)">
<mask id="path-1-outside-1_16_470" maskUnits="userSpaceOnUse" x="-0.415416" y="-0.596103" width="39.8296" height="34.8798" fill="black">
<rect fill="white" x="-0.415416" y="-0.596103" width="39.8296" height="34.8798"/>
<path fill-rule="evenodd" clip-rule="evenodd" d="M29.7817 3.18295C28.2044 2.27232 26.1876 2.81273 25.2769 4.39L16.0087 20.443L10.9886 15.3489C9.71027 14.0516 7.62234 14.0363 6.3251 15.3147C5.02787 16.593 5.01257 18.681 6.29093 19.9782L14.1658 27.9694C15.2392 29.0586 16.8834 29.244 18.151 28.5187C18.8123 28.2533 19.3927 27.7727 19.7765 27.1078L30.9887 7.6877C31.8994 6.11043 31.359 4.09359 29.7817 3.18295Z"/>
</mask>
<path fill-rule="evenodd" clip-rule="evenodd" d="M29.7817 3.18295C28.2044 2.27232 26.1876 2.81273 25.2769 4.39L16.0087 20.443L10.9886 15.3489C9.71027 14.0516 7.62234 14.0363 6.3251 15.3147C5.02787 16.593 5.01257 18.681 6.29093 19.9782L14.1658 27.9694C15.2392 29.0586 16.8834 29.244 18.151 28.5187C18.8123 28.2533 19.3927 27.7727 19.7765 27.1078L30.9887 7.6877C31.8994 6.11043 31.359 4.09359 29.7817 3.18295Z" fill="white"/>
<path d="M25.2769 4.39L27.009 5.39L27.009 5.39L25.2769 4.39ZM16.0087 20.443L14.5842 21.8469C15.0224 22.2916 15.6432 22.5061 16.2625 22.4269C16.8818 22.3476 17.4286 21.9837 17.7408 21.443L16.0087 20.443ZM10.9886 15.3489L9.5641 16.7527L10.9886 15.3489ZM6.3251 15.3147L7.72892 16.7392L7.72892 16.7392L6.3251 15.3147ZM6.29093 19.9782L4.8664 21.382L6.29093 19.9782ZM14.1658 27.9694L15.5904 26.5655L14.1658 27.9694ZM18.151 28.5187L17.4061 26.6626C17.3207 26.6969 17.2377 26.737 17.1577 26.7828L18.151 28.5187ZM19.7765 27.1078L21.5086 28.1078L21.5086 28.1078L19.7765 27.1078ZM30.9887 7.6877L32.7208 8.6877L30.9887 7.6877ZM27.009 5.39C27.3673 4.76931 28.161 4.55665 28.7817 4.915L30.7817 1.4509C28.2478 -0.0120186 25.0078 0.856141 23.5449 3.39L27.009 5.39ZM17.7408 21.443L27.009 5.39L23.5449 3.39L14.2767 19.443L17.7408 21.443ZM9.5641 16.7527L14.5842 21.8469L17.4333 19.0392L12.4132 13.945L9.5641 16.7527ZM7.72892 16.7392C8.2394 16.2362 9.06104 16.2422 9.5641 16.7527L12.4132 13.945C10.3595 11.8611 7.00527 11.8365 4.92129 13.8901L7.72892 16.7392ZM7.71547 18.5744C7.21241 18.0639 7.21843 17.2423 7.72892 16.7392L4.92129 13.8901C2.8373 15.9438 2.81273 19.298 4.8664 21.382L7.71547 18.5744ZM15.5904 26.5655L7.71547 18.5744L4.8664 21.382L12.7413 29.3732L15.5904 26.5655ZM17.1577 26.7828C16.6584 27.0685 16.0108 26.9922 15.5904 26.5655L12.7413 29.3732C14.4677 31.125 17.1085 31.4195 19.1444 30.2546L17.1577 26.7828ZM18.0445 26.1078C17.8924 26.3712 17.6665 26.5581 17.4061 26.6626L18.896 30.3748C19.958 29.9485 20.893 29.1741 21.5086 28.1078L18.0445 26.1078ZM29.2567 6.6877L18.0445 26.1078L21.5086 28.1078L32.7208 8.6877L29.2567 6.6877ZM28.7817 4.915C29.4024 5.27335 29.615 6.06702 29.2567 6.6877L32.7208 8.6877C34.1837 6.15385 33.3156 2.91382 30.7817 1.4509L28.7817 4.915Z" fill="#406D00" mask="url(#path-1-outside-1_16_470)"/>
</g>
<defs>
<filter id="filter0_d_16_470" x="0.642041" y="0.0402572" width="35.4894" height="35.6119" filterUnits="userSpaceOnUse" color-interpolation-filters="sRGB">
<feFlood flood-opacity="0" result="BackgroundImageFix"/>
<feColorMatrix in="SourceAlpha" type="matrix" values="0 0 0 0 0 0 0 0 0 0 0 0 0 0 0 0 0 0 127 0" result="hardAlpha"/>
<feOffset dy="2"/>
<feGaussianBlur stdDeviation="1.35"/>
<feComposite in2="hardAlpha" operator="out"/>
<feColorMatrix type="matrix" values="0 0 0 0 0 0 0 0 0 0 0 0 0 0 0 0 0 0 0.25 0"/>
<feBlend mode="normal" in2="BackgroundImageFix" result="effect1_dropShadow_16_470"/>
<feBlend mode="normal" in="SourceGraphic" in2="effect1_dropShadow_16_470" result="shape"/>
</filter>
</defs>
</svg>
