<svg width="48" height="48" viewBox="0 0 48 48" fill="none" xmlns="http://www.w3.org/2000/svg">
<g filter="url(#filter0_d_16_313)">
<path fill-rule="evenodd" clip-rule="evenodd" d="M24 44C35.598 44 45 34.598 45 23C45 11.402 35.598 2 24 2C12.402 2 3 11.402 3 23C3 34.598 12.402 44 24 44ZM15 20C13.3431 20 12 21.3431 12 23C12 24.6569 13.3431 26 15 26H32C33.6569 26 35 24.6569 35 23C35 21.3431 33.6569 20 32 20H15Z" fill="#DA4722"/>
</g>
<defs>
<filter id="filter0_d_16_313" x="0.9" y="0.9" width="46.2" height="46.2" filterUnits="userSpaceOnUse" color-interpolation-filters="sRGB">
<feFlood flood-opacity="0" result="BackgroundImageFix"/>
<feColorMatrix in="SourceAlpha" type="matrix" values="0 0 0 0 0 0 0 0 0 0 0 0 0 0 0 0 0 0 127 0" result="hardAlpha"/>
<feOffset dy="1"/>
<feGaussianBlur stdDeviation="1.05"/>
<feComposite in2="hardAlpha" operator="out"/>
<feColorMatrix type="matrix" values="0 0 0 0 0 0 0 0 0 0 0 0 0 0 0 0 0 0 0.25 0"/>
<feBlend mode="normal" in2="BackgroundImageFix" result="effect1_dropShadow_16_313"/>
<feBlend mode="normal" in="SourceGraphic" in2="effect1_dropShadow_16_313" result="shape"/>
</filter>
</defs>
</svg>
