<svg width="48" height="48" viewBox="0 0 48 48" fill="none" xmlns="http://www.w3.org/2000/svg">
<g filter="url(#filter0_d_16_312)">
<path fill-rule="evenodd" clip-rule="evenodd" d="M24 44C35.598 44 45 34.598 45 23C45 11.402 35.598 2 24 2C12.402 2 3 11.402 3 23C3 34.598 12.402 44 24 44ZM23.5 11.5C25.1569 11.5 26.5 12.8431 26.5 14.5V20H32C33.6569 20 35 21.3431 35 23C35 24.6569 33.6569 26 32 26H26.5V31.5C26.5 33.1569 25.1569 34.5 23.5 34.5C21.8431 34.5 20.5 33.1569 20.5 31.5V26H15C13.3431 26 12 24.6569 12 23C12 21.3431 13.3431 20 15 20H20.5V14.5C20.5 12.8431 21.8431 11.5 23.5 11.5Z" fill="#BDDE00"/>
</g>
<defs>
<filter id="filter0_d_16_312" x="0.9" y="0.9" width="46.2" height="46.2" filterUnits="userSpaceOnUse" color-interpolation-filters="sRGB">
<feFlood flood-opacity="0" result="BackgroundImageFix"/>
<feColorMatrix in="SourceAlpha" type="matrix" values="0 0 0 0 0 0 0 0 0 0 0 0 0 0 0 0 0 0 127 0" result="hardAlpha"/>
<feOffset dy="1"/>
<feGaussianBlur stdDeviation="1.05"/>
<feComposite in2="hardAlpha" operator="out"/>
<feColorMatrix type="matrix" values="0 0 0 0 0 0 0 0 0 0 0 0 0 0 0 0 0 0 0.25 0"/>
<feBlend mode="normal" in2="BackgroundImageFix" result="effect1_dropShadow_16_312"/>
<feBlend mode="normal" in="SourceGraphic" in2="effect1_dropShadow_16_312" result="shape"/>
</filter>
</defs>
</svg>
